<svg width="233" height="25" viewBox="0 0 233 25" fill="none" xmlns="http://www.w3.org/2000/svg">
<path d="M16.2 24.56C15.64 24.56 15.0667 24.1867 14.48 23.44L6.68 13.08L3.68 16.16V22.76C3.68 23.32 3.52 23.76 3.2 24.08C2.90667 24.4 2.50667 24.56 2 24.56C1.52 24.56 1.12 24.4 0.8 24.08C0.506667 23.76 0.36 23.32 0.36 22.76V2.28C0.36 1.72 0.506667 1.28 0.8 0.959999C1.12 0.64 1.52 0.48 2 0.48C2.50667 0.48 2.90667 0.64 3.2 0.959999C3.52 1.28 3.68 1.72 3.68 2.28V11.88L13.48 1.4C14.0667 0.786667 14.6533 0.48 15.24 0.48C15.6933 0.48 16.0667 0.626666 16.36 0.919999C16.6533 1.18667 16.8 1.53333 16.8 1.96C16.8 2.46667 16.52 3.04 15.96 3.68L9 10.72L17.16 21.36C17.6133 21.9467 17.84 22.4933 17.84 23C17.84 23.4267 17.68 23.7867 17.36 24.08C17.0667 24.4 16.68 24.56 16.2 24.56ZM31.9444 24.56C29.3577 24.56 27.371 23.7867 25.9844 22.24C24.5977 20.6933 23.9044 18.52 23.9044 15.72V2.28C23.9044 1.72 24.051 1.28 24.3444 0.959999C24.6644 0.64 25.0644 0.48 25.5444 0.48C26.0244 0.48 26.4244 0.64 26.7444 0.959999C27.0644 1.28 27.2244 1.72 27.2244 2.28V15.4C27.2244 19.48 28.7977 21.52 31.9444 21.52C35.1444 21.52 36.7444 19.48 36.7444 15.4V2.28C36.7444 1.72 36.891 1.28 37.1844 0.959999C37.5044 0.64 37.9044 0.48 38.3844 0.48C38.891 0.48 39.291 0.64 39.5844 0.959999C39.9044 1.28 40.0644 1.72 40.0644 2.28V15.72C40.0644 18.52 39.3577 20.6933 37.9444 22.24C36.5577 23.7867 34.5577 24.56 31.9444 24.56ZM48.3688 22.24V2.28C48.3688 1.72 48.5154 1.28 48.8088 0.959999C49.1288 0.64 49.5288 0.48 50.0088 0.48C50.5154 0.48 50.9154 0.64 51.2088 0.959999C51.5288 1.28 51.6888 1.72 51.6888 2.28V21.04C58.7288 20.9333 62.4754 20.88 62.9288 20.88C63.5154 20.88 63.9688 21.0267 64.2888 21.32C64.6088 21.5867 64.7688 21.96 64.7688 22.44C64.7688 22.92 64.5954 23.3067 64.2488 23.6C63.9288 23.8667 63.4888 24 62.9288 24H50.0488C49.5421 24 49.1288 23.8533 48.8088 23.56C48.5154 23.24 48.3688 22.8 48.3688 22.24ZM72.3531 22.24V2.28C72.3531 1.72 72.4998 1.28 72.7931 0.959999C73.1131 0.64 73.5131 0.48 73.9931 0.48C74.4998 0.48 74.8998 0.64 75.1931 0.959999C75.5131 1.28 75.6731 1.72 75.6731 2.28V21.04C82.7131 20.9333 86.4598 20.88 86.9131 20.88C87.4998 20.88 87.9531 21.0267 88.2731 21.32C88.5931 21.5867 88.7531 21.96 88.7531 22.44C88.7531 22.92 88.5798 23.3067 88.2331 23.6C87.9131 23.8667 87.4731 24 86.9131 24H74.0331C73.5265 24 73.1131 23.8533 72.7931 23.56C72.4998 23.24 72.3531 22.8 72.3531 22.24ZM99.5375 18.96C100.578 20.6667 102.044 21.52 103.938 21.52C105.831 21.52 107.298 20.6667 108.338 18.96C109.378 17.2533 109.898 15.0933 109.898 12.48C109.898 9.86667 109.378 7.72 108.338 6.04C107.298 4.36 105.831 3.52 103.938 3.52C102.018 3.52 100.538 4.36 99.4975 6.04C98.4842 7.72 97.9775 9.86667 97.9775 12.48C97.9775 15.0933 98.4975 17.2533 99.5375 18.96ZM110.858 21.16C109.231 23.4267 106.924 24.56 103.938 24.56C100.951 24.56 98.6442 23.4267 97.0175 21.16C95.3908 18.8933 94.5775 16 94.5775 12.48C94.5775 8.98667 95.3908 6.12 97.0175 3.88C98.6442 1.61333 100.951 0.48 103.938 0.48C106.924 0.48 109.231 1.61333 110.858 3.88C112.484 6.12 113.298 8.98667 113.298 12.48C113.298 16 112.484 18.8933 110.858 21.16Z" fill="#283043"/>
<path d="M144.345 22.24V2.28C144.345 1.72 144.492 1.28 144.785 0.959999C145.105 0.64 145.505 0.48 145.985 0.48C146.492 0.48 146.892 0.64 147.185 0.959999C147.505 1.28 147.665 1.72 147.665 2.28V21.04C154.705 20.9333 158.452 20.88 158.905 20.88C159.492 20.88 159.945 21.0267 160.265 21.32C160.585 21.5867 160.745 21.96 160.745 22.44C160.745 22.92 160.572 23.3067 160.225 23.6C159.905 23.8667 159.465 24 158.905 24H146.025C145.519 24 145.105 23.8533 144.785 23.56C144.492 23.24 144.345 22.8 144.345 22.24ZM169.53 24.56C169.023 24.56 168.61 24.4 168.29 24.08C167.996 23.76 167.85 23.32 167.85 22.76V9.32C167.85 6.54667 168.543 4.38667 169.93 2.84C171.316 1.26667 173.316 0.48 175.93 0.48C178.543 0.48 180.543 1.26667 181.93 2.84C183.316 4.38667 184.01 6.54667 184.01 9.32V22.76C184.01 23.32 183.85 23.76 183.53 24.08C183.236 24.4 182.85 24.56 182.37 24.56C181.863 24.56 181.45 24.4 181.13 24.08C180.836 23.76 180.69 23.32 180.69 22.76V16.44H171.17V22.76C171.17 23.32 171.01 23.76 170.69 24.08C170.396 24.4 170.01 24.56 169.53 24.56ZM171.17 13.48H180.69V9.68C180.69 7.62667 180.316 6.08 179.57 5.04C178.823 4 177.61 3.48 175.93 3.48C172.756 3.48 171.17 5.54667 171.17 9.68V13.48ZM199.914 24H194.034C193.527 24 193.114 23.8533 192.794 23.56C192.474 23.24 192.314 22.8 192.314 22.24V2.76C192.314 2.22667 192.474 1.81333 192.794 1.52C193.114 1.2 193.527 1.04 194.034 1.04H199.594C202.314 1.04 204.434 1.57333 205.954 2.64C207.501 3.68 208.274 5.18667 208.274 7.16C208.274 9.4 207.221 11.0267 205.114 12.04C207.754 13.08 209.074 14.8267 209.074 17.28C209.074 19.52 208.221 21.2 206.514 22.32C204.834 23.44 202.634 24 199.914 24ZM200.074 13.72H195.634V21.08H200.114C203.821 21.08 205.674 19.8133 205.674 17.28C205.674 14.9067 203.807 13.72 200.074 13.72ZM199.754 3.96H195.634V10.96H199.714C201.341 10.96 202.607 10.6667 203.514 10.08C204.421 9.49333 204.874 8.62667 204.874 7.48C204.874 6.33333 204.421 5.46667 203.514 4.88C202.634 4.26667 201.381 3.96 199.754 3.96ZM223.738 24.56C221.018 24.56 218.672 23.9467 216.698 22.72C215.498 21.9467 214.898 21.1733 214.898 20.4C214.898 19.9733 215.045 19.6267 215.338 19.36C215.658 19.0667 216.032 18.92 216.458 18.92C216.965 18.92 217.658 19.24 218.538 19.88C220.085 20.9467 221.845 21.48 223.818 21.48C225.392 21.48 226.712 21.16 227.778 20.52C228.845 19.8533 229.378 18.9333 229.378 17.76C229.378 16.72 228.898 15.92 227.938 15.36C227.005 14.8 225.538 14.28 223.538 13.8C220.765 13.16 218.685 12.3333 217.298 11.32C215.912 10.28 215.218 8.77333 215.218 6.8C215.218 4.85333 216.018 3.32 217.618 2.2C219.218 1.05333 221.192 0.48 223.538 0.48C226.338 0.48 228.645 1.13333 230.458 2.44C231.338 2.97333 231.778 3.58666 231.778 4.28C231.778 4.73333 231.632 5.10667 231.338 5.4C231.072 5.69333 230.725 5.84 230.298 5.84C229.845 5.84 229.285 5.61333 228.618 5.16C226.992 4.09333 225.258 3.56 223.418 3.56C221.952 3.56 220.792 3.85333 219.938 4.44C219.085 5.02667 218.658 5.8 218.658 6.76C218.658 7.32 218.792 7.81333 219.058 8.24C219.352 8.64 219.778 8.98667 220.338 9.28C220.925 9.57333 221.485 9.81333 222.018 10C222.578 10.1867 223.298 10.3867 224.178 10.6C227.165 11.3467 229.352 12.2 230.738 13.16C232.125 14.0933 232.818 15.5467 232.818 17.52C232.818 19.76 231.952 21.4933 230.218 22.72C228.512 23.9467 226.352 24.56 223.738 24.56Z" fill="#B55D4D"/>
</svg>
